# xmcd CD database file
#
# Track frame offsets:
#	150
#	4016
#	29728
#	52337
#	78149
#	103055
#	117356
#	146396
#	172006
#	193150
#	211327
#	235904
#	253653
#
# Disc length: 3422 seconds
#
# Revision: 4
# Processed by: cddbd v1.5PL3 Copyright (c) Steve Scherf et al.
# Submitted via: CDex 1.51
#
DISCID=b90d5c0d
DTITLE=Flaming Lips, The - Yoshimi Conquers The Swedish Scientist [Stockholm 2003]
DYEAR=2003
DGENRE=Jazz
TTITLE0=Intro
TTITLE1=Race For The Prize
TTITLE2=Fight Test
TTITLE3=The Gash
TTITLE4=Yoshimi Battles The Pink Robots, Pt. 1
TTITLE5=Lightning Strikes The Postman
TTITLE6=In The Morning Of The Magicians
TTITLE7=She Don't Use Jelly
TTITLE8=All We Have Is Now
TTITLE9=Do You Realize??
TTITLE10=Waitin' For A Superman
TTITLE11=A Spoonful Weighs A Ton
TTITLE12=Outro
EXTD=YEAR: 2003
EXTT0=
EXTT1=
EXTT2=
EXTT3=
EXTT4=
EXTT5=
EXTT6=
EXTT7=
EXTT8=
EXTT9=
EXTT10=
EXTT11=
EXTT12=
PLAYORDER=
